<?xml version="1.0" standalone="no"?><!DOCTYPE svg PUBLIC "-//W3C//DTD SVG 1.1//EN" "http://www.w3.org/Graphics/SVG/1.1/DTD/svg11.dtd"><svg t="1713448685672" class="icon" viewBox="0 0 1024 1024" version="1.1" xmlns="http://www.w3.org/2000/svg" p-id="11458" xmlns:xlink="http://www.w3.org/1999/xlink" width="200" height="200"><path d="M511.999814 511.999814m-511.999814 0a511.999814 511.999814 0 1 0 1023.999628 0 511.999814 511.999814 0 1 0-1023.999628 0Z" fill="#3BE3A4" p-id="11459"></path><path d="M466.087394 2.029381A518.050721 518.050721 0 0 1 511.999814 0c282.763534 0 511.999814 229.226971 511.999814 511.999814 0 8.685379-0.195491 17.314903-0.633018 25.897881-15.127267 1.349818-30.440716 2.029381-45.91242 2.029381-282.763534 0-511.999814-229.226971-511.999814-511.999813 0-8.685379 0.2048-17.314903 0.633018-25.897882z" fill="#FFFFFF" opacity=".1" p-id="11460"></path><path d="M204.799926 921.636901V446.836201c0-56.552707 45.856565-102.399963 102.399962-102.399963h316.508976c56.543398 0 102.399963 45.847256 102.399963 102.399963v474.763464H279.272626a27.927263 27.927263 0 0 0-27.731772 31.297152A509.374651 509.374651 0 0 1 204.799926 921.636901zM772.654264 952.775799V460.799832a23.272719 23.272719 0 1 1 46.545438 0v460.837069a513.461341 513.461341 0 0 1-46.545438 31.138898zM724.312173 978.040663A510.175233 510.175233 0 0 1 511.999814 1023.999628c-76.241427 0-148.573037-16.663267-213.597013-46.545438h426.011772l-0.1024 0.586473z" fill="#F8FEFB" p-id="11461"></path></svg>